<?xml version="1.0" encoding="utf-8"?>
<!-- Generator: Adobe Illustrator 16.0.0, SVG Export Plug-In . SVG Version: 6.00 Build 0)  -->
<!DOCTYPE svg PUBLIC "-//W3C//DTD SVG 1.1//EN" "http://www.w3.org/Graphics/SVG/1.1/DTD/svg11.dtd">
<svg version="1.1" xmlns="http://www.w3.org/2000/svg" xmlns:xlink="http://www.w3.org/1999/xlink" x="0px" y="0px" width="630px"
	 height="580px" viewBox="0 0 630 580" enable-background="new 0 0 630 580" xml:space="preserve">
<g id="Layer_1" opacity="0.2">
	<circle fill="#B3B3B3" cx="179.594" cy="96.024" r="11.695"/>
	<circle fill="#B3B3B3" cx="364.009" cy="235.459" r="16.192"/>
	<circle fill="#B3B3B3" cx="485.902" cy="95.575" r="5.847"/>
	<circle fill="#B3B3B3" cx="506.591" cy="343.859" r="9.446"/>
	<circle fill="#B3B3B3" cx="193.088" cy="392.887" r="6.297"/>
	<circle fill="#B3B3B3" cx="352.314" cy="412.678" r="16.192"/>
	<circle fill="#B3B3B3" cx="617.242" cy="123.461" r="11.245"/>
	<circle fill="#B3B3B3" cx="585.396" cy="434.627" r="8.636"/>
	<circle fill="#B3B3B3" cx="469.709" cy="448.21" r="7.646"/>
	<circle fill="#B3B3B3" cx="112.126" cy="270.542" r="12.594"/>
	<circle fill="#B3B3B3" cx="495.797" cy="207.123" r="11.246"/>
	<circle fill="#B3B3B3" cx="224.931" cy="226.822" r="7.555"/>
	<circle fill="#B3B3B3" cx="321.279" cy="51.495" r="13.045"/>
	<circle fill="#B3B3B3" cx="282.596" cy="567.854" r="12.144"/>
	<circle fill="#B3B3B3" cx="137.763" cy="469.8" r="5.847"/>
	<line fill="none" x1="321.279" y1="51.495" x2="364.009" y2="235.459"/>
	<line fill="none" stroke="#B3B3B3" stroke-width="3" stroke-miterlimit="10" x1="321.279" y1="51.495" x2="364.009" y2="235.459"/>
	<line fill="none" stroke="#B3B3B3" stroke-width="3" stroke-miterlimit="10" x1="364.009" y1="235.459" x2="510.64" y2="342.959"/>
	<path fill="none" stroke="#B3B3B3" stroke-width="3" stroke-miterlimit="10" d="M485.902,95.575"/>
	<path fill="none" stroke="#B3B3B3" stroke-width="3" stroke-miterlimit="10" d="M613.192,121.662"/>
	<line fill="none" stroke="#B3B3B3" stroke-width="3" stroke-miterlimit="10" x1="617.241" y1="127.06" x2="495.797" y2="207.123"/>
	
		<line fill="none" stroke="#B3B3B3" stroke-width="3" stroke-miterlimit="10" x1="491.749" y1="206.673" x2="586.204" y2="429.319"/>
	<line fill="none" stroke="#B3B3B3" stroke-width="3" stroke-miterlimit="10" x1="174.646" y1="93.325" x2="109.877" y2="266.045"/>
	
		<line fill="none" stroke="#B3B3B3" stroke-width="3" stroke-miterlimit="10" x1="112.126" y1="270.542" x2="224.932" y2="226.822"/>
	
		<line fill="none" stroke="#B3B3B3" stroke-width="3" stroke-miterlimit="10" x1="224.932" y1="226.822" x2="367.607" y2="228.263"/>
	<line fill="none" stroke="#B3B3B3" stroke-width="3" stroke-miterlimit="10" x1="485.902" y1="95.575" x2="370.307" y2="235.01"/>
	
		<line fill="none" stroke="#B3B3B3" stroke-width="3" stroke-miterlimit="10" x1="502.545" y1="348.355" x2="356.812" y2="410.428"/>
	<line fill="none" stroke="#B3B3B3" stroke-width="3" stroke-miterlimit="10" x1="580.808" y1="427.97" x2="472.858" y2="449.559"/>
	<line fill="none" stroke="#B3B3B3" stroke-width="3" stroke-miterlimit="10" x1="462.062" y1="448.21" x2="282.596" y2="567.854"/>
	
		<line fill="none" stroke="#B3B3B3" stroke-width="3" stroke-miterlimit="10" x1="346.017" y1="413.127" x2="193.088" y2="392.887"/>
	<line fill="none" stroke="#B3B3B3" stroke-width="3" stroke-miterlimit="10" x1="469.709" y1="440.564" x2="467.46" y2="444.162"/>
	
		<line fill="none" stroke="#B3B3B3" stroke-width="3" stroke-miterlimit="10" x1="469.709" y1="440.564" x2="352.765" y2="417.175"/>
	<line fill="none" stroke="#B3B3B3" stroke-width="3" stroke-miterlimit="10" x1="290.692" y1="566.954" x2="143.611" y2="469.8"/>
	<line fill="none" stroke="#B3B3B3" stroke-width="3" stroke-miterlimit="10" x1="137.764" y1="469.8" x2="116.624" y2="270.093"/>
	<circle fill="#B3B3B3" cx="414.835" cy="60.771" r="12.145"/>
	<circle fill="#B3B3B3" cx="598.349" cy="280.888" r="12.145"/>
	<circle fill="#B3B3B3" cx="482.978" cy="520.401" r="11.469"/>
	<circle fill="#B3B3B3" cx="464.087" cy="447.535" r="11.469"/>
	<circle fill="#B3B3B3" cx="20.144" cy="529.847" r="18.217"/>
	<circle fill="#B3B3B3" cx="76.143" cy="149.999" r="13.494"/>
	<circle fill="#B3B3B3" cx="275.85" cy="324.067" r="10.794"/>
	<circle fill="#B3B3B3" cx="570.013" cy="8.315" r="6.747"/>
	<path fill="none" stroke="#B3B3B3" stroke-width="3" stroke-miterlimit="10" d="M426.979,60.771"/>
	<path fill="none" stroke="#B3B3B3" stroke-width="3" stroke-miterlimit="10" d="M321.279,51.495"/>
	<line fill="none" stroke="#B3B3B3" stroke-width="3" stroke-miterlimit="10" x1="422.932" y1="59.423" x2="485.902" y2="95.575"/>
	<line fill="none" stroke="#B3B3B3" stroke-width="3" stroke-miterlimit="10" x1="414.836" y1="60.771" x2="570.014" y2="8.315"/>
	
		<line fill="none" stroke="#B3B3B3" stroke-width="3" stroke-miterlimit="10" x1="463.412" y1="444.162" x2="482.978" y2="520.401"/>
	
		<line fill="none" stroke="#B3B3B3" stroke-width="3" stroke-miterlimit="10" x1="267.585" y1="317.321" x2="108.527" y2="278.189"/>
	<line fill="none" stroke="#B3B3B3" stroke-width="3" stroke-miterlimit="10" x1="116.624" y1="270.093" x2="76.143" y2="149.999"/>
	<line fill="none" stroke="#B3B3B3" stroke-width="3" stroke-miterlimit="10" x1="24.867" y1="529.173" x2="137.764" y2="469.8"/>
	
		<line fill="none" stroke="#B3B3B3" stroke-width="3" stroke-miterlimit="10" x1="352.314" y1="412.678" x2="279.898" y2="564.256"/>
	
		<line fill="none" stroke="#B3B3B3" stroke-width="3" stroke-miterlimit="10" x1="281.247" y1="572.353" x2="138.213" y2="554.811"/>
	<circle fill="#B3B3B3" cx="130.117" cy="550.762" r="14.843"/>
	<line fill="none" stroke="#B3B3B3" stroke-width="3" stroke-miterlimit="10" x1="491.749" y1="206.673" x2="598.35" y2="280.888"/>
</g>
<g id="Layer_2">
	
		<text transform="matrix(0.9543 0 0 1 128.3218 321.6133)" opacity="0.8" fill="#010101" font-family="'Roboto-Regular'" font-size="64.2894">arquitetura</text>
	
		<text transform="matrix(0.9543 0 0 1 66.0913 271.7554)" opacity="0.8" fill="#010101" font-family="'Roboto-Regular'" font-size="31.9793">niemeyer</text>
	
		<text transform="matrix(0.9543 0 0 1 138.1196 238.0259)" opacity="0.8" fill="#010101" font-family="'Roboto-Regular'" font-size="43.7041">fau</text>
	
		<text transform="matrix(0.9543 0 0 1 324.4551 352.5957)" opacity="0.8" fill="#010101" font-family="'Roboto-Regular'" font-size="25.4199">concreto</text>
	
		<text transform="matrix(0.9543 0 0 1 229.2202 357.2598)" opacity="0.8" fill="#010101" font-family="'Roboto-Regular'" font-size="33.4646">igreja</text>
	
		<text transform="matrix(0.9543 0 0 1 429.7949 333.6396)" opacity="0.8" fill="#010101" font-family="'Roboto-Regular'" font-size="36.0577">parque</text>
	
		<text transform="matrix(0.9543 0 0 1 59.1792 356.3652)" opacity="0.8" fill="#010101" font-family="'Roboto-Regular'" font-size="32.7614">vegetação</text>
	
		<text transform="matrix(0.9543 0 0 1 211.8862 247.6528)" opacity="0.8" fill="#010101" font-family="'Roboto-Regular'" font-size="31.3396">fachada</text>
	
		<text transform="matrix(0.9543 0 0 1 210.4487 274.813)" opacity="0.8" fill="#010101" font-family="'Roboto-Regular'" font-size="20.2999">vão</text>
	
		<text transform="matrix(0.9543 0 0 1 112.3765 398.4727)" opacity="0.8" fill="#010101" font-family="'Roboto-Regular'" font-size="42.5462">brasília</text>
	
		<text transform="matrix(0.9543 0 0 1 69.6138 235.4985)" opacity="0.8" fill="#010101" font-family="'Roboto-Regular'" font-size="21.0197">metro</text>
	
		<text transform="matrix(0.9543 0 0 1 270.2769 212.7349)" opacity="0.8" fill="#010101" font-family="'Roboto-Regular'" font-size="39.1656">estação</text>
	
		<text transform="matrix(0.9543 0 0 1 421.875 382.7158)" opacity="0.8" fill="#010101" font-family="'Roboto-Regular'" font-size="64.2894">centro</text>
	
		<text transform="matrix(0.9543 0 0 1 90.063 198.5522)" opacity="0.8" fill="#010101" font-family="'Roboto-Regular'" font-size="64.2894">ponte</text>
	
		<text transform="matrix(0.8931 0 0 1 254.1655 386.0479)" opacity="0.8" fill="#010101" font-family="'Roboto-Regular'" font-size="15.7439">cptm</text>
	
		<text transform="matrix(0.9543 0 0 1 346.8027 275.4126)" opacity="0.8" fill="#010101" font-family="'Roboto-Regular'" font-size="32.9515">faculdade</text>
	
		<text transform="matrix(0.9543 0 0 1 331.2549 243.8794)" opacity="0.8" fill="#010101" font-family="'Roboto-Regular'" font-size="23.2826">vidro</text>
	
		<text transform="matrix(0.9543 0 0 1 253.6528 418.9756)" opacity="0.8" fill="#010101" font-family="'Roboto-Regular'" font-size="29.8338">laje</text>
	
		<text transform="matrix(0.9783 0 0 1 364.2412 418.4336)" opacity="0.8" fill="#010101" font-family="'Roboto-Regular'" font-size="27.1058">modernismo</text>
	
		<text transform="matrix(0.9543 0 0 1 206.9077 216.9429)" opacity="0.8" fill="#010101" font-family="'Roboto-Regular'" font-size="13.8289">maquete</text>
	
		<text transform="matrix(0.9543 0 0 1 297.2485 435.4941)" opacity="0.8" fill="#010101" font-family="'Roboto-Regular'" font-size="15.1223">pilar</text>
	
		<text transform="matrix(0.9543 0 0 1 46.4907 327.7734)" opacity="0.8" fill="#010101" font-family="'Roboto-Regular'" font-size="22.6319">edifício</text>
	
		<text transform="matrix(0.9543 0 0 1 307.8579 413.9092)" opacity="0.8" fill="#010101" font-family="'Roboto-Regular'" font-size="23.3563">trem</text>
	
		<text transform="matrix(0.9543 0 0 1 297.646 384.5967)" opacity="0.8" fill="#010101" font-family="'Roboto-Regular'" font-size="24.6659">são paulo</text>
	
		<text transform="matrix(0.9543 0 0 1 388.8438 244.5884)" opacity="0.8" fill="#010101" font-family="'Roboto-Regular'" font-size="17.9231">público</text>
	
		<text transform="matrix(0.9543 0 0 1 278.5005 271.8062)" opacity="0.8" fill="#010101" font-family="'Roboto-Regular'" font-size="17.0962">avenida</text>
	
		<text transform="matrix(0.9543 0 0 1 74.894 422.7412)" opacity="0.8" fill="#010101" font-family="'Roboto-Regular'" font-size="20.2152">inteligência coletiva</text>
</g>
</svg>
