<?xml version="1.0" encoding="utf-8"?>
<!-- Generator: Adobe Illustrator 16.0.0, SVG Export Plug-In . SVG Version: 6.00 Build 0)  -->
<!DOCTYPE svg PUBLIC "-//W3C//DTD SVG 1.1//EN" "http://www.w3.org/Graphics/SVG/1.1/DTD/svg11.dtd">
<svg version="1.1" id="Layer_1" xmlns="http://www.w3.org/2000/svg" xmlns:xlink="http://www.w3.org/1999/xlink" x="0px" y="0px"
	 width="540px" height="90px" viewBox="0 0 540 90" enable-background="new 0 0 540 90" xml:space="preserve">
<g>
	<polyline fill="none" stroke="#010101" stroke-width="3" stroke-miterlimit="10" points="34.077,45.697 44.254,45.697 
		44.254,51.563 34.077,51.563 34.077,35.919 44.254,35.919 44.254,51.563 	"/>
	<polyline fill="none" stroke="#010101" stroke-width="3" stroke-miterlimit="10" points="44.255,35.736 44.255,29.498 
		26.951,29.498 26.951,58.601 50.743,58.601 50.743,23.264 20.466,23.264 20.466,64.835 57.229,64.835 57.229,46.13 57.229,17.023 
		13.976,17.023 13.976,71.074 63.72,71.074 63.72,10.784 7.492,10.784 7.492,77.312 71.658,77.312 	"/>
</g>
<text transform="matrix(1.0338 0 0 1 83.8008 56.7783)" fill="#010101" font-family="'Roboto-Regular'" font-size="67.2074">ARQUIGRAFIA</text>
<text transform="matrix(1.0338 0 0 1 82.7573 79.3887)" fill="#010101" font-family="'Roboto-Regular'" font-size="18.1581">Seu ambiente colaborativo de imagens de arquitetura </text>
</svg>
